<svg width="64" height="64" viewBox="0 0 64 64" fill="none" xmlns="http://www.w3.org/2000/svg">
<path d="M6.7869 53.3676C3.32431 46.9204 7.44483 41.5861 10.1079 39.2605L18.9908 50.1849C15.9301 50.9802 10.5745 60.42 6.7869 53.3676Z" stroke="white" stroke-width="2" stroke-linejoin="round"/>
<path d="M60.408 18.5458C55.9265 12.7602 49.3774 14.3548 46.1697 15.8417L52.5367 28.4001C54.5081 25.9275 65.3101 24.8744 60.408 18.5458Z" stroke="white" stroke-width="2" stroke-linejoin="round"/>
<path d="M16.0887 25.2599C15.4105 26.1081 15.5221 27.255 16.1769 28.1214L16.3197 28.3103C15.4739 28.8323 14.3537 29.6086 12.9638 30.7479C10.9103 32.431 9.75986 34.2418 9.15948 35.4518C8.73401 36.3092 8.94008 37.3011 9.5387 38.048L18.8977 49.7254C20.0717 51.1904 22.2869 51.2254 23.5983 49.882C25.6015 47.8302 27.5373 46.139 29.3898 44.5238C30.3499 44.7753 31.4242 44.5644 32.2401 43.8702C33.4665 42.8268 34.9468 41.6349 36.199 40.8217C37.4512 40.0086 39.1421 39.1411 40.5941 38.4451C41.6144 37.956 42.2595 36.9844 42.3732 35.941C42.6198 35.8268 42.8672 35.7119 43.116 35.5964C45.3671 34.5507 47.7211 33.4573 50.4397 32.451C52.2004 31.7993 53.0694 29.7615 52.2087 28.093L45.3474 14.7935C44.9085 13.9429 44.0862 13.3512 43.1299 13.3911C41.7803 13.4475 39.6581 13.762 37.2853 14.9533C35.294 15.9531 33.9809 16.8012 33.1609 17.4047C33.0631 17.4767 32.9734 17.555 32.8917 17.6388L32.7404 17.365C32.2152 16.4144 31.2128 15.8459 30.1621 16.1205C28.6122 16.5255 26.0398 17.4868 22.5267 19.7682C19.0136 22.0497 17.0891 24.0087 16.0887 25.2599Z" stroke="white" stroke-width="2"/>
<path d="M16.1771 28.1214C15.5223 27.255 15.4107 26.108 16.0889 25.2598C17.0893 24.0087 19.0137 22.0496 22.5268 19.7682C26.0399 17.4867 28.6124 16.5255 30.1623 16.1205C31.213 15.8459 32.2154 16.4144 32.7405 17.3649L42.0152 34.1531C42.8761 35.7114 42.1997 37.6756 40.5943 38.445C39.1422 39.141 37.4513 40.0085 36.1992 40.8217C34.947 41.6349 33.4667 42.8267 32.2403 43.8702C30.8844 45.0238 28.8149 44.8429 27.7415 43.4226L16.1771 28.1214Z" stroke="white" stroke-width="2"/>
</svg>
