<svg width="64" height="64" viewBox="0 0 64 64" fill="none" xmlns="http://www.w3.org/2000/svg">
<path d="M14.0328 22H47.9672L47.3439 41.3224C47.1699 46.7169 42.7464 51 37.3491 51H24.6509C19.2536 51 14.8301 46.7169 14.6561 41.3224L14.0328 22Z" stroke="#BF8968" stroke-width="2" stroke-linejoin="round"/>
<path d="M47.5298 42L47.971 27H52.5C54.7091 27 56.5 28.7909 56.5 31V38C56.5 40.2091 54.7091 42 52.5 42H47.5298Z" stroke="#BF8968" stroke-width="2"/>
<path d="M14.1111 57C10.7732 57 8.06025 54.3238 8.00099 51H53.999C53.9398 54.3238 51.2268 57 47.8889 57H14.1111Z" stroke="#BF8968" stroke-width="2"/>
<path d="M30.7216 15C35.5408 11.3077 26.9024 7.76923 31.2835 5" stroke="#BF8968" stroke-width="2" stroke-linecap="round" stroke-linejoin="round"/>
<path d="M20.7216 17C25.5408 13.3077 16.9024 9.76923 21.2835 7" stroke="#BF8968" stroke-width="2" stroke-linecap="round" stroke-linejoin="round"/>
<path d="M40.7216 17C45.5408 13.3077 36.9024 9.76923 41.2835 7" stroke="#BF8968" stroke-width="2" stroke-linecap="round" stroke-linejoin="round"/>
</svg>
