<svg width="64" height="64" viewBox="0 0 64 64" fill="none" xmlns="http://www.w3.org/2000/svg">
<path d="M22.2238 23.7855C27.4817 23.7855 31.7769 19.6637 32.0544 14.475C36.2644 14.4513 39.8149 11.6546 40.9773 7.82097C40.9846 7.79686 40.9966 7.77447 41.0117 7.75542C41.027 7.73603 41.0428 7.7237 41.0543 7.71708C41.0549 7.71675 41.0555 7.71644 41.056 7.71615C50.952 11.3936 58 20.9229 58 32.0958C58 46.4553 46.3594 58.0958 32 58.0958C17.6406 58.0958 6 46.4553 6 32.0958C6 31.0207 6.0652 29.9612 6.19178 28.9211C6.19368 28.9202 6.19581 28.9193 6.19816 28.9184C6.22002 28.9095 6.25123 28.9033 6.28642 28.9054C6.32029 28.9074 6.35102 28.9168 6.37713 28.9318C7.89112 29.8041 9.64752 30.3027 11.5173 30.3027C15.8488 30.3027 19.554 27.6321 21.0809 23.8514C21.0937 23.8197 21.1185 23.7891 21.1553 23.7668C21.1923 23.7444 21.232 23.7362 21.2678 23.7396C21.5827 23.77 21.9016 23.7855 22.2238 23.7855Z" stroke="white" stroke-width="2"/>
<circle cx="22" cy="9" r="4" stroke="white" stroke-width="2"/>
<circle cx="43" cy="21" r="4" stroke="white" stroke-width="2"/>
<circle cx="26" cy="45" r="4" stroke="white" stroke-width="2"/>
<circle cx="48" cy="38" r="4" stroke="white" stroke-width="2"/>
<circle cx="12" cy="21" r="2" fill="white"/>
<circle cx="33" cy="26" r="2" fill="white"/>
<circle cx="53" cy="27" r="2" fill="white"/>
<circle cx="37" cy="38" r="2" fill="white"/>
<circle cx="37" cy="49" r="2" fill="white"/>
<circle cx="27" cy="34" r="2" fill="white"/>
<circle cx="15" cy="38" r="2" fill="white"/>
</svg>
