<svg width="64" height="64" viewBox="0 0 64 64" fill="none" xmlns="http://www.w3.org/2000/svg">
<mask id="path-1-inside-1_26_356" fill="white">
<path fill-rule="evenodd" clip-rule="evenodd" d="M36.9915 7.26275C36.9971 7.1759 37 7.08828 37 7C37 4.79086 35.2091 3 33 3C30.7909 3 29 4.79086 29 7C29 7.07148 29.0019 7.14252 29.0056 7.21308C20.6012 8.10779 10.0766 11.8968 10.946 20.0179C7.52221 21.001 5 24.365 5 28.3636C5 30.9933 6.0908 33.3484 7.81147 34.9325L9.19071 51.8143C9.61471 57.0041 13.9504 61 19.1575 61H44.8425C50.0496 61 54.3853 57.0041 54.8093 51.8143L56.1885 34.9325C57.9092 33.3484 59 30.9933 59 28.3636C59 25.0125 57.2285 22.1072 54.6395 20.6754C56.4521 11.7636 44.9623 8.19267 36.9915 7.26275Z"/>
</mask>
<path d="M36.9915 7.26275L34.9957 7.13333L34.8728 9.02913L36.7598 9.24928L36.9915 7.26275ZM29.0056 7.21308L29.2173 9.20184L31.1022 9.00118L31.0028 7.10823L29.0056 7.21308ZM10.946 20.0179L11.498 21.9402L13.1136 21.4763L12.9347 19.805L10.946 20.0179ZM7.81147 34.9325L9.80483 34.7696L9.74118 33.9905L9.16605 33.461L7.81147 34.9325ZM9.19071 51.8143L7.19735 51.9771L9.19071 51.8143ZM54.8093 51.8143L56.8027 51.9771L56.8027 51.9771L54.8093 51.8143ZM56.1885 34.9325L54.8339 33.461L54.2588 33.9905L54.1952 34.7696L56.1885 34.9325ZM54.6395 20.6754L52.6797 20.2768L52.3871 21.7152L53.6716 22.4256L54.6395 20.6754ZM35 7C35 7.04509 34.9985 7.08954 34.9957 7.13333L38.9873 7.39217C38.9957 7.26225 39 7.13148 39 7H35ZM33 5C34.1046 5 35 5.89543 35 7H39C39 3.68629 36.3137 1 33 1V5ZM31 7C31 5.89543 31.8954 5 33 5V1C29.6863 1 27 3.68629 27 7H31ZM31.0028 7.10823C31.001 7.07258 31 7.0365 31 7H27C27 7.10646 27.0028 7.21246 27.0083 7.31793L31.0028 7.10823ZM12.9347 19.805C12.619 16.8562 14.2734 14.5097 17.5023 12.6352C20.7448 10.7529 25.1725 9.63244 29.2173 9.20184L28.7939 5.22432C24.4343 5.68843 19.3975 6.90985 15.494 9.17591C11.5768 11.4499 8.40364 15.0584 8.95739 20.2308L12.9347 19.805ZM7 28.3636C7 25.1911 8.99321 22.6595 11.498 21.9402L10.394 18.0956C6.05122 19.3426 3 23.5388 3 28.3636H7ZM9.16605 33.461C7.85917 32.2579 7 30.4375 7 28.3636H3C3 31.5491 4.32242 34.4389 6.4569 36.4039L9.16605 33.461ZM11.1841 51.6514L9.80483 34.7696L5.81812 35.0953L7.19735 51.9771L11.1841 51.6514ZM19.1575 59C14.9918 59 11.5233 55.8033 11.1841 51.6514L7.19735 51.9771C7.70616 58.2049 12.9089 63 19.1575 63V59ZM44.8425 59H19.1575V63H44.8425V59ZM52.8159 51.6514C52.4767 55.8033 49.0082 59 44.8425 59V63C51.091 63 56.2938 58.2049 56.8027 51.9771L52.8159 51.6514ZM54.1952 34.7696L52.8159 51.6514L56.8027 51.9771L58.1819 35.0953L54.1952 34.7696ZM57 28.3636C57 30.4375 56.1408 32.2579 54.8339 33.461L57.5431 36.4039C59.6776 34.4389 61 31.5491 61 28.3636H57ZM53.6716 22.4256C55.602 23.4931 57 25.715 57 28.3636H61C61 24.3101 58.8551 20.7212 55.6074 18.9252L53.6716 22.4256ZM36.7598 9.24928C40.6234 9.70003 45.1765 10.7799 48.4771 12.7038C50.1148 13.6583 51.3281 14.7537 52.0457 15.9681C52.7351 17.135 53.0363 18.5232 52.6797 20.2768L56.5994 21.074C57.149 18.3717 56.6937 15.9717 55.4895 13.9334C54.3134 11.9428 52.496 10.4164 50.4914 9.24796C46.5076 6.9259 41.3304 5.75539 37.2233 5.27623L36.7598 9.24928Z" fill="white" mask="url(#path-1-inside-1_26_356)"/>
<path d="M8.5 34C10.5 35.5 15.5 38 19 33.5C21.5 38 30 38 32.5 33.5C35 38 43 37.5 44.5 33C46.5 38 53.5 35.5 55.5 34" stroke="white" stroke-width="2" stroke-linecap="square" stroke-linejoin="round"/>
<circle cx="33" cy="7" r="3" stroke="white" stroke-width="2"/>
<line x1="19.1585" y1="40.8112" x2="21.4159" y2="53.6137" stroke="white" stroke-width="2" stroke-linecap="round"/>
<line x1="32" y1="40" x2="32" y2="53" stroke="white" stroke-width="2" stroke-linecap="round"/>
<line x1="44.4159" y1="41.1585" x2="42.1585" y2="53.961" stroke="white" stroke-width="2" stroke-linecap="round"/>
</svg>
